<svg version="1" xmlns="http://www.w3.org/2000/svg" width="346.667" height="346.667" viewBox="0 0 260.000000 260.000000"><path d="M0 130v130h260V0H0v130zM29.8 7.5c2.2 8.3.7 39.8-2 41.6-.5.3-1.3 3.2-1.8 6.5-.5 3.2-1.4 6-2 6.2-1.6.6-1.2 4.2.5 4.2.8 0 1.5-.9 1.5-2s.7-2 1.5-2 1.5-.7 1.5-1.5c0-2.3 6-2 6.1.2 0 1.4.2 1.5.6.3.3-.8.9-1.7 1.3-2 .4-.3 1.2-4.1 1.8-8.4.5-4.3 1.5-8.2 2-8.5.5-.3 1.7-6.8 2.7-14.4 1-7.5 2.2-13.7 2.7-13.7.4 0 .8-.9.8-2s.5-2 1-2c.6 0 1 .9 1 2s.5 2 1 2c.6 0 1 4.7 1 12 0 6.6-.4 12-.9 12s-1.1 2.8-1.5 6.2c-1.4 14.4-1.9 17.3-2.5 17.8-1.2.8-4 12.3-3.7 15 .2 1.4.1 1.7-.1.7-.8-3-2.3-1.8-2.3 1.8 0 1.9.5 3.5 1 3.5.6 0 1 .9 1 2s-.7 2-1.5 2c-1.3 0-1.5.7-.9 3.5.4 2.5.3 3.5-.6 3.5-.8 0-1 .8-.7 2.2 1 3.6-.4 10.8-2 10.8-1.2 0-1.4.8-.9 3.7.4 2.7.3 3.2-.4 1.8-.6-1.4-.9.2-.8 5.5 0 5.6.2 6.9.9 5 .8-2.3.8-2.3.5.5-.3 1.6-.8 5.8-1.2 9.2-.3 3.5-1.1 6.3-1.5 6.3-.5 0-1 1.7-1 3.7-.1 2.4-.3 2.9-.6 1.6-.2-1.3-.9-2.3-1.4-2.3-.5 0-.9-.6-.9-1.4 0-.8-.4-1.6-.9-1.8-1.9-.6-3-13.1-2.2-23.7.4-5.8.6-11.3.3-12.3-.3-1.2.1-1.8 1.2-1.8.9 0 1.6-.8 1.6-1.8 0-.9.3-4.1.6-7l.7-5.2h-5.7c-4.3 0-5.6.3-5.6 1.5 0 .8-.5 1.5-1.1 1.5-.7 0-.9 1.1-.6 2.7.7 3.5-1.4 34.6-2.4 35.3-.4.3-.9 1.4-1.2 2.5-.4 1.8-.5 1.8-.6-.3 0-1.2-.7-2.2-1.5-2.2-2 0-2.9-7.6-2.6-21.8C9.2 95.6 9 94 7.6 94c-.9 0-1.6.7-1.6 1.5S5.6 97 5 97c-1.2 0-1.2-.1.1-5.6C5.7 89 6.8 87 7.5 87s1.6-1.5 1.9-3.4c.4-1.9 1.1-3.6 1.5-3.8.5-.2 1.5-5.7 2.1-12.3.7-6.6 1.5-12.2 1.9-12.5.5-.3 1.6-5.7 2.5-12 .9-6.2 2-11.6 2.5-12 .4-.3 1.4-5.1 2.1-10.8.7-5.6 1.7-10.2 2.2-10.2.4 0 .8-1.6.8-3.5 0-2.7.4-3.5 1.8-3.5 1.3 0 2.1 1.3 3 4.5zm95.2 1c0 .8.5 1.5 1 1.5.6 0 1 .9 1 1.9 0 1.1.5 2.1 1 2.3.6.2 1.3 6.6 1.7 15.6.5 13.6.8 15.2 2.4 15.2 1.2 0 2-1.4 2.9-5 .9-3.8 1.6-5 3.1-5 1.2 0 1.9-.7 1.9-2 0-1.1.4-2 1-2 .5 0 1.2-1.6 1.6-3.5.3-2 1.2-3.5 2-3.5s1.4-.7 1.4-1.5.5-1.5 1-1.5c.6 0 1-.9 1-2 0-1.3.7-2 2-2s2 .7 2 2c0 1.1.6 2 1.4 2 2 0 2.5 2.9 3.3 19.2.4 10.9.3 14.8-.5 14.8-.7 0-1.2.9-1.2 2s-.4 2-1 2c-.5 0-1 .7-1 1.5s.5 1.5 1 1.5c.6 0 1 .9 1 2s-.7 2-1.5 2c-1 0-1.5 1.1-1.5 3.5s-.5 3.5-1.5 3.5c-.8 0-1.5.7-1.5 1.5s.7 1.5 1.5 1.5c1.7 0 1.9 3.8.9 12.7-.5 3.5-1.1 5.3-2 5.3-1.1 0-1.4 2-1.4 8.2 0 4.6-.3 10.7-.6 13.5-.7 5.2-.8 5.3-3.9 5.3-3.8 0-4.2-.8-5.1-12.3-.7-7.8 1.2-28.7 2.6-28.7.4 0 1.3-4.7 2-10.5s1.7-10.5 2.1-10.5c.5 0 .9-1.6.9-3.5s-.4-3.5-1-3.5c-.5 0-1 .7-1 1.5s-.4 1.5-1 1.5c-.5 0-1 .9-1 2s-.6 2-1.4 2c-.9 0-1.5 1.6-1.9 4.7-.3 2.6-1 4.9-1.6 5.1-.6.2-1.1 1.2-1.1 2.3 0 1-.4 1.9-1 1.9-.5 0-1.2 1.6-1.6 3.5-.3 1.9-1 3.5-1.4 3.5-.4 0-1.3 2.2-2 5-.7 3-1.7 5-2.6 5-.8 0-1.5 1-1.5 2.2l-.2 2.3-.4-2.3c-.5-2.7-2.3-2.9-2.3-.2 0 1.1-.4 2-.9 2s-1.2-3.2-1.6-7c-.4-3.9-1.1-7-1.6-7s-.9-.9-.9-2 .4-2 .8-2c.5 0 1.4-5.7 2.1-12.8.6-7 1.4-13.9 1.7-15.5.4-1.5.2-2.7-.4-2.7-.5 0-1.3 1.5-1.6 3.4-.4 1.9-1.1 3.6-1.6 3.8-.6.2-1.5 3.2-2.1 6.8-.5 3.5-1.4 6.7-1.8 7-.4.3-1.4 5-2.1 10.5-.7 5.5-1.7 10.3-2.2 10.6-.6.4-1.7 5.9-2.6 12.3-1.5 11.2-2.6 14-3.5 9.3-.2-1.2-.5 2-.6 7-.1 8.4-.3 9.3-2 9.3-1.3 0-2.1-1-2.5-3.4-.4-1.9-1.2-3.6-1.9-3.9-1.5-.5-1.6-22.5 0-23.5.9-.7 1.5-3.4 3-14 .3-2.3.9-4.2 1.3-4.2s1-1.9 1.4-4.3c1.6-10.9 1.9-12.2 2.6-12.7.8-.6 4-15.5 4-18.8 0-1.2.4-2.2.9-2.2s1.4-2.3 2.1-5c.7-2.8 1.5-5 1.9-5 .9 0 3.1-8.2 3.1-11.5 0-1.5.6-2.5 1.4-2.5.8 0 1.7-1.5 2-3.5.7-3.4 3.6-5.1 3.6-2zm66.1 2.2c.1 2.4.3 2.9.6 1.5.9-4.4 2.1-2 2.8 5.3.4 4.2.6 18.4.5 31.8-.2 13.3.1 27.2.5 30.9.7 6.3.6 6.8-1.2 6.8-1.7 0-2 1.2-3.1 12.7-.7 7.1-1.2 17.2-1.2 22.5 0 5.9-.4 9.8-1 9.8-.5 0-1.1 1.7-1.1 3.7-.1 2.4-.3 2.9-.6 1.5-.2-1.2-.9-2.2-1.4-2.2-.5 0-.9-.6-.9-1.4 0-.8-.6-1.6-1.2-1.9-1.6-.5-1.4-24 .2-24.5 1.3-.5 1.3-3.2 0-3.2-.5 0-1-.7-1-1.5s.7-1.5 1.5-1.5c1.2 0 1.5-1.3 1.5-5.5s-.3-5.5-1.5-5.5c-.8 0-1.5.9-1.5 2 0 1.3-.7 2-2 2-1.1 0-2 .7-2 1.5s-.4 1.5-1 1.5c-.5 0-1 .9-1 2s-.7 2-1.5 2-1.5.7-1.5 1.5-.4 1.5-1 1.5c-.5 0-1 .7-1 1.5s-.6 1.5-1.4 1.5c-1.5 0-2.6 4.2-2.6 10.1 0 2.2-.4 3.9-.9 3.9s-1.2 3.3-1.7 7.2c-.4 4-.9 6.5-1.2 5.5-.2-.9-1.2-1.7-2.1-1.7-1.9 0-3.1-3.5-3.1-8.5 0-1.3-.6-2.5-1.2-2.8-1.5-.4-1.4-18.7 0-19.6.8-.5 2.5-10.1 3.9-21.4.3-2 .9-3.7 1.3-3.7s1.3-2.3 2-5c.7-2.8 1.6-5 2.1-5s.9-1.2.9-2.6c0-3.6 2.1-11.4 3.1-11.4.4 0 1.1-1.7 1.4-3.8 1.1-6.9 2.6-12.7 3.5-13.2.5-.3 1.3-3.4 1.9-6.9.6-3.6 1.4-6.7 1.9-7 .5-.3 1.5-3 2.2-5.9.8-2.9 1.9-5.2 2.7-5.2.7 0 1.3-.7 1.3-1.5 0-.9.9-1.5 2.5-1.5 2.2 0 2.5.5 2.6 3.7zM81 11.9c0 1.1.5 2.1 1.1 2.3.6.2 1.3 2.5 1.6 5.1.3 2.6 1 4.7 1.4 4.7.5 0 .9 1.2.9 2.6 0 4.3 2.2 11.4 3.5 11.4.7 0 1.6 1.5 1.9 3.4.4 1.9 1.2 3.6 1.8 3.8 1.8.6 1.8 33.6 0 34.7-.7.4-1.7 3-2.1 5.7-.5 2.7-.9 4.1-1 3.1 0-.9-.5-1.7-1-1.7-1.1 0-2.1 3.5-2.1 7.2 0 1.7-.5 2.8-1.4 2.8-.8 0-1.7 1.5-2 3.5-.4 1.9-1.1 3.5-1.6 3.5-.6 0-1 .7-1 1.5s-.4 1.5-1 1.5c-.5 0-1 .9-1 2s-.4 2-1 2c-.5 0-1-.9-1-2 0-3.7-2-2-2.1 1.7 0 3.1-.2 3.4-.9 1.8-.7-1.7-.9-1.7-.9-.3-.1 1-.5 1.8-1.1 1.8-.5 0-1 1.6-1 3.5 0 2.4-.5 3.5-1.5 3.5-.8 0-1.5.9-1.5 2s-.4 2-1 2c-.5 0-1-1.6-1-3.5s-.4-3.5-1-3.5c-.5 0-1 1.6-1 3.5s-.4 3.5-1 3.5c-.5 0-1-.9-1-2s-.4-2-1-2c-.5 0-1-.7-1-1.5s-.4-1.5-.9-1.5-1.2-1.6-1.5-3.5c-.4-1.9-1.1-3.5-1.6-3.5-.6 0-1-1.6-1-3.5s-.4-3.5-1-3.5-1-6.5-1-17.5c0-9.6.4-17.5.8-17.5.7 0 1.9-6.2 3.9-20.3.3-2 .9-3.7 1.3-3.7s1.3-2.3 2-5c.7-2.8 1.6-5 2.1-5s.9-.9.9-2 .5-2 1-2c.6 0 1-.7 1-1.5s.5-1.5 1-1.5c.6 0 1-.9 1-2s.4-2 1-2c.5 0 1.2-1.6 1.6-3.5.3-2 1.2-3.5 2-3.5s1.4-.7 1.4-1.5.9-1.5 2-1.5c1.3 0 2-.7 2-2 0-1.1.7-2 1.5-2s1.5.9 1.5 1.9zm175.6 5.6c.3 1.9 1 3.5 1.5 3.5s.9.7.9 1.5-.4 1.5-.9 1.5-1.2 1.6-1.5 3.5c-.4 1.9-1.3 3.5-2 3.5s-1.8 2.3-2.6 5.5c-.8 3.3-1.9 5.5-2.7 5.5-.7 0-1.3.1-1.3.2-.1 3.1-2.2 12.3-3 12.8-.5.3-1.5 4.4-2.2 9.1-.6 4.6-1.4 8.6-1.8 8.9-.6.5-2 9.6-3.6 24.5-.4 3.3-1 6.2-1.4 6.5-.7.4-3 18.1-3 22.5 0 .8-.4 1.5-1 1.5-.5 0-1-.7-1-1.5s-.4-1.5-1-1.5c-.5 0-1 .7-1 1.5 0 2.9-1.9 1.4-2.6-2-.3-1.9-1-3.5-1.5-3.5s-.9-7-.9-15.5c0-9.7-.4-15.5-1-15.5s-1-7.2-1.1-19.3c-.1-10.5-.3-18.4-.6-17.5-.2 1-1 1.8-1.7 1.8-1.3 0-2 3.3-3.3 15-.3 3-.9 5.7-1.3 6-.8.6-4 22.9-4 27.7 0 1.8-.4 3.3-.9 3.3-.4 0-1.1 1.9-1.4 4.2-.4 2.4-.9 6.4-1.3 9-.5 3.8-1.1 4.8-2.5 4.8-1.2 0-1.9-.7-1.9-1.9 0-1.1-.5-2.1-1.2-2.3-2.9-1-2.6-39 .3-40.9.5-.3 1.4-4.3 2.1-9 .6-4.6 1.5-8.7 2-9 .4-.3 1.4-3.2 2-6.5.7-3.2 1.5-6.1 1.9-6.4.3-.3 1.4-3.5 2.4-7.3 1-3.7 2.1-6.7 2.5-6.7.4 0 1.3-2.5 2-5.5 1.5-6.3 3.5-7.2 4.4-2 .4 1.9 1.1 3.5 1.6 3.5.6 0 1 .9 1 1.9 0 1.1.5 2.1 1.2 2.3.7.3 1.4 3.2 1.6 7.1.2 3.7.8 6.7 1.3 6.7s.9 1.9 1 4.2c0 2.4.4 6.3.8 8.8.8 4.5.8 4.5 1 .8 0-2 .6-3.8 1.1-4 .6-.2 1.5-4 2.2-8.6.7-4.5 1.5-8.2 1.9-8.2.4 0 1-1.6 1.3-3.5.4-1.9 1.1-3.5 1.5-3.5.5 0 .8-2.3.8-5.1s.4-5.4 1-5.7c.6-.4 1.6-2.3 2.2-4.2l1.1-3.5-.6 3.7c-.4 3-.2 3.8 1.1 3.8 1 0 1.5-.9 1.5-2.8 0-6.1.9-7.2 5.6-7.2 4.1 0 4.3.1 5 3.5zM71 160.5c0 8.3-2.6 19.5-4.6 19.5-.6 0-1.5 1.6-1.8 3.5-.4 1.9-1.1 3.5-1.6 3.5-.6 0-1 .9-1 2s-.4 2-1 2c-.5 0-1 .6-1 1.4 0 .8-.5 1.6-1 1.8-.6.2-1.3 2.7-1.7 5.6l-.6 5.2h4c4.6 0 5.3 1.1 5.3 8.7 0 2.4.5 4.3 1 4.3.6 0 1 .9 1 2s-.4 2-1 2c-.5 0-1 1.1-1 2.5 0 3.4-2.2 11.5-3.2 11.5-.4 0-.8.7-.8 1.5s-.4 1.5-1 1.5c-.5 0-1 .9-1 2s-.7 2-1.5 2-1.5.7-1.5 1.5c0 1.1-1.2 1.5-4.4 1.5-4.2 0-4.5-.2-5.1-3.2-.4-1.8-1.2-3.6-1.8-4-1.5-.9-1.3-23.1.2-23.6.6-.2 1.1-2 1.1-4 0-5.3 2-16.6 3-17.2.5-.3 1.4-2.7 2-5.3.7-2.6 1.5-4.7 1.9-4.7.4 0 1.5-3.2 2.5-7 1-3.9 2.2-7 2.6-7 .4 0 1.3-2.5 2-5.5s1.7-5.5 2.2-5.5c.4 0 .8-.7.8-1.5s.5-1.5 1-1.5c.6 0 1-.7 1-1.5 0-.9.9-1.5 2.5-1.5 2.4 0 2.5.2 2.5 7.5zm69-3.1c0 .8.6 1.6 1.3 1.8 1.6.6 1.7 19.5.1 20.6-.6.4-1.5 2.2-1.9 3.9-.3 1.8-1.2 3.3-1.9 3.3-2.4 0-3.5 8-2.4 16.2.6 4.3 1.5 7.8 2 7.8.4 0 .8-.7.8-1.5s.5-1.5 1-1.5c.6 0 1-.7 1-1.5s.7-1.5 1.5-1.5 1.5-.9 1.5-2c0-1.3.7-2 1.9-2 1.5 0 1.9 1 2.5 5.2 1.1 9.2.8 11.8-1.2 11.8-2.8 0-4.5 7.7-3 13.5.7 2.5 1.6 4.5 2 4.5.4 0 .8 1.6.8 3.5s-.4 3.5-1 3.5c-.5 0-1 .7-1 1.5s-.4 1.5-1 1.5c-.5 0-1-.7-1-1.5s-.4-1.5-.8-1.5c-.5 0-1.5-2.5-2.2-5.5-1.3-5.4-4-7.7-4-3.5 0 1.1-.4 2-1 2-.5 0-1 .7-1 1.5 0 1-1 1.5-3 1.5-2.4 0-3 .4-3.1 2.2l-.2 2.3-.4-2.2c-.3-1.4-1.2-2.3-2.3-2.3-1.8 0-4-6.1-4-11.4 0-1.4-.4-2.6-1-2.6s-1-3-1-7c0-3.9.4-7 1-7 .5 0 1.2-1.7 1.5-3.8 1.3-8 2.9-13.2 4.1-13.2.7 0 1.6-1.5 1.9-3.3.4-1.7 1.2-3.5 1.8-3.9.6-.4 1.4-5.7 1.8-12 .4-6.2.7-11.4.8-11.6.1-.1.8-.2 1.6-.2s1.5-.9 1.5-2c0-1.3.7-2 2-2 1.1 0 2-.7 2-1.5s.5-1.5 1-1.5c.6 0 1 .6 1 1.4zM21 161c0 1.1.5 2 1 2 .6 0 1 1.6 1 3.5s.5 3.5 1 3.5c1.2 0 1.3 6.7.1 7.2-.5.2-1.4 5.5-2.1 11.8-.7 6.3-1.5 11.7-1.9 12-.9.6-2.8 14.2-3.7 26.2-.4 4.9-1.1 8.8-1.5 8.8-.5 0-.9 2.1-1 4.7-.1 2.7-.5 5.9-.9 7.3-.8 2.4-.8 2.4-.9.2-.1-1.2-.5-2.2-1-2.2s-1.4-2-2-4.4C8 237 9.5 209 11 208c.6-.5 3-15.5 3-19.3 0-.9-.4-1.7-1-1.7-.5 0-1 .9-1 2s-.6 2-1.4 2c-.9 0-1.5-1.8-2-5.3-.9-7.6-.7-12.7.4-12.7.6 0 1-.7 1-1.5s.9-1.5 2-1.5c1.3 0 2-.7 2-2 0-1.1.7-2 1.5-2s1.5-.7 1.5-1.5.5-1.5 1-1.5c.6 0 1-.9 1-2s.5-2 1-2c.6 0 1 .9 1 2zm21-1.3c0 .5.5 3.5 1 6.8 1 6.1-.4 26.4-1.9 27.5-.9.6-3.1 15.8-3.1 20.7 0 1.7-.4 3.3-1 3.5-.5.1-1.5 6.5-2.1 14-1.2 13.1-2.7 18.2-3 10l-.2-3.7-.7 4-.6 4-.8-3.8c-.5-2-1.2-3.7-1.7-3.7s-.9-1.6-.9-3.5.4-3.5.8-3.5c.5 0 1.2-4.4 1.5-9.8.8-13.1 2.9-28.2 3.9-28.2.4 0 .8-1.6.8-3.5 0-4-2.9-5.2-3.1-1.3-.1 2.2-.1 2.2-.9-.2-.4-1.4-.8-4-.9-5.8-.1-1.7-.5-3.2-1.1-3.2-.5 0-1-.7-1-1.5s.4-1.5.9-1.5 1.2-1.6 1.5-3.5c.5-2.6 1.2-3.5 2.6-3.5 1.3 0 2-.7 2-2 0-1.1.5-2 1-2 .6 0 1-.7 1-1.5s.7-1.5 1.5-1.5 1.5-.9 1.5-2 .7-2 1.5-2 1.5.3 1.5.7zm50 1.3c0 1.3.7 2 1.9 2 2.1 0 3.1 5.5 3.1 17.2 0 4.3.4 6.8 1.2 7 1.6.6 1.8 22.6.2 23.6-.6.4-1.4 2.9-1.8 5.7-.3 2.7-1.1 5.1-1.6 5.3-.6.2-1 1.9-1 3.8s-.4 3.4-1 3.4c-.5 0-1.2 1.6-1.6 3.5-.3 2-1.2 3.5-2 3.5s-1.4.7-1.4 1.5-.4 1.5-1 1.5c-.5 0-1 .9-1 2 0 1.6-.7 2-3.5 2s-3.5-.4-3.5-2c0-1.1-.4-2-1-2-.5 0-1-.6-1-1.4 0-.8-.6-1.6-1.2-1.9-1.8-.5-1.7-40.5.1-41.6.6-.4 1.6-3.6 2.2-7.2.6-3.5 1.4-6.6 1.9-6.9.5-.3 1.4-2.7 2-5.3.7-2.6 1.8-4.7 2.5-4.7s1.6-1.6 1.9-3.5c.4-2.1 1.3-3.5 2.1-3.5s1.5-.9 1.5-2 .5-2 1-2c.6 0 1 .9 1 2zm93 0c0 1.1.7 2 1.5 2 1 0 1.5 1.1 1.5 3.5 0 1.9.5 3.5 1 3.5.6 0 1 4.2 1 10.5 0 5.8-.4 10.5-.9 10.5-.4 0-1.2 2.8-1.5 6.2-.8 7.4-2.6 13.8-3.8 13.8-.4 0-.8 1.6-.8 3.5s-.4 3.5-1 3.5c-.5 0-1 1.5-1 3.4s-.5 3.6-1 3.8c-.6.2-1.3 2.7-1.7 5.6-.4 3.4-1 5.2-1.9 5.2-.8 0-1.4.7-1.4 1.5s-.4 1.5-1 1.5c-.5 0-1 1.7-1 3.7 0 12-2.9 18.9-4.4 10.8-.4-1.9-1.1-3.5-1.6-3.5-.6 0-1-3.2-1-7 0-3.9.4-7 .8-7 .5 0 1.4-2.4 2.2-5.3.7-2.8 1.7-5.5 2.2-5.8 1-.6 2.5-8.5 3.5-17.7.5-5.3.3-6.2-1.1-6.2-.9 0-1.6-.7-1.6-1.5s-.6-1.5-1.4-1.5c-.8 0-1.7-1.5-2-3.4-.4-1.9-1.2-3.6-1.8-3.8-1.5-.5-1.6-19.7-.1-20.6.6-.4 1.4-2.2 1.8-4 .6-2.7 1.1-3.2 3.6-3.2 2.2 0 2.9-.5 2.9-2 0-1.7.7-2 5-2s5 .3 5 2zm64.4 2c2 0 2.7 9.2 1.5 20.4-.6 5.6-1.5 10.3-1.9 10.6-.4.3-1.3 5.1-2 10.7-.7 5.7-1.6 10.3-2 10.3-.4 0-1.3 7-2 15.5s-1.7 15.5-2.1 15.5c-.5 0-.9 1-1 2.2 0 1.3-.8-.2-1.7-3.2-.8-3-1.9-5.7-2.4-5.8-1.1-.5-1-7.2 0-7.2.5 0 1.2-4.4 1.5-9.8.8-13.1 2.9-28.2 3.9-28.2.4 0 .8-1.6.8-3.5 0-4-2.9-5.2-3.1-1.3-.1 1.6-.4 1.1-1.1-1.5-.6-2-1.4-3.7-1.9-3.7s-.9-2.5-.9-5.5c0-4.2.3-5.5 1.5-5.5.8 0 1.5-.7 1.5-1.5s.9-1.5 2-1.5c1.3 0 2-.7 2-2 0-1.1.5-2 1-2 .6 0 1-.7 1-1.5s.7-1.5 1.5-1.5 1.6-1 1.6-2.3l.2-2.2.4 2.2c.2 1.3 1 2.3 1.7 2.3zm-40.4 1.5c0 .8.9 1.5 1.9 1.5 2.7 0 3.5 5.7 2.6 18.1-.6 8.3-.5 9.9.7 9.9 2.5 0 4.2 9.8 3.4 20.2-.8 11.7-1.5 14.8-3.2 14.8-.7 0-1.6 1.6-2 3.5-.3 2-1.2 3.5-2 3.5s-1.4.7-1.4 1.5-.9 1.5-2 1.5c-1.3 0-2 .7-2 2 0 1.1-.4 2-1 2-.5 0-1 .7-1 1.5 0 2.1-2 1.9-2.1-.3-.1-1.6-.2-1.6-.6 0-.2 1-.9 1.8-1.4 1.8-.5 0-.9.9-.9 2 0 1.6-.7 2-3 2-2 0-3 .5-3 1.5 0 .8-.4 1.5-1 1.5-.5 0-1-1.6-1-3.5s-.4-3.5-1-3.5-1-3-1-7v-7h5c3.8 0 5-.4 5-1.5 0-1 1-1.5 3-1.5 2.3 0 3-.4 3-2 0-1.3.7-2 2-2 1.4 0 2.1-.9 2.6-3.5.3-1.9 1.2-3.5 1.9-3.5 1.7 0 3.2-6.3 1.6-6.8-.6-.2-1.1-1-1.1-1.8 0-1-1.3-1.4-4.9-1.4-5.5 0-6.1-.8-6.1-9.3 0-3.4.4-4.7 1.4-4.7.9 0 1.9-2 2.6-5 .7-2.8 1.6-5 2.1-5s.9-.9.9-2c0-1.6-.7-2-3-2s-3 .4-3 2c0 1.1-.7 2-1.5 2s-1.5.7-1.5 1.5c0 2.3-1.7 1.8-2.4-.8-.3-1.2-.6-5-.6-8.5 0-4.8.3-6.2 1.5-6.2.8 0 1.5-.9 1.5-2s.5-2 1-2c.6 0 1-.7 1-1.5 0-1.1 1.2-1.5 4.5-1.5s4.5.4 4.5 1.5zm17.9 71c.1 5.5-2.7 17.9-2.8 12.8-.1-1.2-.7-2.3-1.3-2.6-.9-.2-1.3-3.2-1.3-10.2 0-7 .4-10 1.3-10.3.6-.2 1.2-1.1 1.3-2 .3-4.1 2.8 6.9 2.8 12.3zm-52.2 9.7c-.3.8-.6.5-.6-.6-.1-1.1.2-1.7.5-1.3.3.3.4 1.2.1 1.9z"/><path d="M31 126.5c0 .8.7 1.5 1.5 1.5s1.5-.7 1.5-1.5-.7-1.5-1.5-1.5-1.5.7-1.5 1.5zM152.6 51.6c-.4 1.5-.5 2.9-.1 3.2.3.3.5-.2.5-1.1 0-1 .5-1.7 1-1.7.6 0 1-.7 1-1.5 0-2.5-1.7-1.7-2.4 1.1zM148.1 83.2c-.1 2.8.3 3.8 1.4 3.8.8 0 1.5-.9 1.5-2s-.4-2-.9-2-1.2-.8-1.4-1.8c-.3-.9-.5 0-.6 2zM105 102.5c0 .8.5 1.5 1 1.5.6 0 1-.7 1-1.5s-.4-1.5-1-1.5c-.5 0-1 .7-1 1.5zM186.6 38c-1.3 4.7-2.3 7-3.3 7-1.2 0-1.4.8-.9 3.7.4 2.7.3 3.2-.4 1.8-.6-1.5-.9-.7-.9 3.2-.1 2.9-.5 5.3-1.1 5.3-.5 0-1 1.2-1 2.6 0 3-2.1 10.6-3 11.4-.4.3-.9 2.7-1.2 5.5-.3 2.7-.4 4.2-.1 3.2.2-.9.9-1.7 1.4-1.7.5 0 .9-.9.9-2s.5-2 1-2c.6 0 1-.7 1-1.5s.9-1.5 2-1.5c1.3 0 2-.7 2-2 0-1.4.7-2 2.1-2 2 0 2.1-.4 1.6-5.3-.3-3.2-.2-4.5.3-3.2.6 1.3.9-1 .9-6.8.1-5.1.5-8.7 1.1-8.7.6 0 1-1.6 1-3.5s-.4-3.5-1-3.5c-.5 0-1-.7-1-1.5s.5-1.5 1-1.5c.6 0 1-.9 1-2 0-4.2-1.7-1.7-3.4 5zM172.1 97.2c-.1 2.1-.5 3.8-1.1 3.8-.5 0-1 .7-1 1.5s.5 1.5 1 1.5c.6 0 1-.6 1-1.4 0-.8.5-1.6 1.2-1.8.9-.3.9-1.3.1-3.9l-1.1-3.4-.1 3.7zM175 95.5c0 .8.5 1.5 1 1.5.6 0 1-.7 1-1.5s-.4-1.5-1-1.5c-.5 0-1 .7-1 1.5zM77 47c0 1.1-.4 2-1 2-.5 0-1 .7-1 1.5s-.4 1.5-1 1.5c-.5 0-1 .7-1 1.5s-.4 1.5-.8 1.5c-.5 0-1.6 3.1-2.6 7-1.7 6.6-3.5 9.2-3.7 5.2 0-1.4-.2-1.4-.9.3-.5 1.1-.8 2.9-.8 4 0 1.6.2 1.6.9-.5.8-2.3.8-2.2.4.5-.3 1.6-.8 4.8-1.2 7-.3 2.2-.9 4.2-1.3 4.5-.5.3-1.1 3.5-1.5 7.2-.7 6.5-.6 6.8 1.4 6.8 1.2 0 2.1-.6 2.1-1.5 0-.8.7-1.5 1.5-1.5s1.5-.9 1.5-2 .7-2 1.5-2 1.5-.7 1.5-1.5.7-1.5 1.5-1.5 1.5-.9 1.5-2c0-1.3.7-2 2-2 1.1 0 2-.7 2-1.5s.6-1.5 1.4-1.5c.8 0 1.7-1.5 2-3.5.4-1.9 1.1-3.5 1.6-3.5.6 0 1-1.5 1-3.4s.5-3.6 1.2-3.8c1.7-.6 1.7-13 .1-13.5-.7-.3-1.5-2-1.9-3.9-.5-2.9-1-3.4-3.5-3.4-2.2 0-2.9.5-2.9 2zM81.2 99c0 1.4.2 1.9.5 1.2.2-.6.2-1.8 0-2.5-.3-.6-.5-.1-.5 1.3zM255.2 19c0 1.4.2 1.9.5 1.2.2-.6.2-1.8 0-2.5-.3-.6-.5-.1-.5 1.3zM252.1 22.6c0 1.1.3 1.4.6.6.3-.7.2-1.6-.1-1.9-.3-.4-.6.2-.5 1.3zM242 25.8c0 1.2-.4 2.2-1 2.2-.5 0-1 .7-1 1.5s.4 1.5.9 1.5c1.1 0 2.6-5.9 1.7-6.7-.3-.4-.6.3-.6 1.5zM217.2 33c0 1.4.2 1.9.5 1.2.2-.6.2-1.8 0-2.5-.3-.6-.5-.1-.5 1.3zM238.2 40c0 1.4.2 1.9.5 1.2.2-.6.2-1.8 0-2.5-.3-.6-.5-.1-.5 1.3zM246 43.3c0 .9-.4 1.7-1 1.7-.5 0-1 .9-1 2s.4 2 .9 2c1 0 2.4-6 1.6-6.8-.3-.3-.5.2-.5 1.1zM235 50.5c0 .8.5 1.5 1 1.5.6 0 1-.7 1-1.5s-.4-1.5-1-1.5c-.5 0-1 .7-1 1.5zM51.6 221.1c-.7 3.5-.6 12.4.1 9.6.2-.9 1.3-1.7 2.3-1.7 2 0 3.1-3.9 2.3-8.3-.8-3.9-3.9-3.6-4.7.4zM130.2 204.2c-.1 2.5-.7 3.8-1.6 3.8-1.4 0-3.6 6.9-3.6 11.4 0 1.9.5 2.6 2 2.6 1.3 0 2-.7 2-2s.7-2 2-2c1.7 0 2-.7 2-5 0-2.8-.4-5-.9-5-.6 0-1.2-1.7-1.4-3.8l-.4-3.7-.1 3.7zM12.3 242.5c0 2.2.2 3 .4 1.7.2-1.2.2-3 0-4-.3-.9-.5.1-.4 2.3zM91 182c0 1.1-.6 2-1.4 2-.8 0-1.9 1.9-2.6 4.7-.6 2.6-1.6 5-2 5.3-.5.3-1.7 5.7-2.7 12-.9 6.3-2 11.6-2.5 11.8-1.2.5-1 11.2.2 11.2.6 0 1-.9 1-2s.7-2 1.5-2 1.5-.7 1.5-1.5.4-1.5.8-1.5c.5 0 1.5-2.5 2.2-5.5.7-3 1.6-5.5 2.1-5.5 1.4 0 2.3-5.8 2.3-15.9.1-7.4.5-10.5 1.4-10.8 1.7-.6 1.5-4.3-.3-4.3-.8 0-1.5.9-1.5 2zM177 178.5c0 .8-.4 1.5-1 1.5-.5 0-1 1.6-1 3.5s.4 3.5.9 3.5 1.2 1.7 1.6 3.7c.4 2.2 1 3.2 1.3 2.3.3-.8.8-1.7 1.1-2 1-.8 3.1-8.4 3.1-11.4 0-2.2-.4-2.6-3-2.6-2 0-3 .5-3 1.5zM239.3 242.5c0 2.2.2 3 .4 1.7.2-1.2.2-3 0-4-.3-.9-.5.1-.4 2.3zM196 182c0 1.1.5 2 1 2 .6 0 1-.9 1-2s-.4-2-1-2c-.5 0-1 .9-1 2z"/></svg>